PathFileType	4	(X/Y/Z)	C:/Users/beibeiliu/ov580/test_trc/User3\sequence.37_training_dense_left.trc
DataRate	CameraRate	NumFrames	NumMarkers	Units	OrigDataRate	OrigDataStartFrame	OrigNumFrames
120	120	23	19	mm	120	63	93
Frame#	Time	ThumbCMC			ThumbMCP			ThumbIP			ThumbTip			IndexMCP			IndexPIP			IndexTip			MiddleMCP			MiddlePIP			MiddleTip			RingMCP			RingPIP			RingTip			PinkyMCP			PinkyPIP			PinkyTip			BackHand1			BackHand2			BackHand3	
		X0	Y0	Z0	X1	Y1	Z1	X2	Y2	Z2	X3	Y3	Z3	X4	Y4	Z4	X5	Y5	Z5	X6	Y6	Z6	X7	Y7	Z7	X8	Y8	Z8	X9	Y9	Z9	X10	Y10	Z10	X11	Y11	Z11	X12	Y12	Z12	X13	Y13	Z13	X14	Y14	Z14	X15	Y15	Z15	X16	Y16	Z16	X17	Y17	Z17	X18	Y18	Z18	
62	0.516667	-200.293	12.9327	20.5892	-206.812	13.0826	-14.3799	-210.23	10.5091	-40.0045	-210.576	-5.16682	-64.5166	-241.756	-34.7342	-29.9046	-238.386	-32.5765	-60.4592	-210.655	-19.8308	-76.3055	-239.765	-57.525	-24.1607	-245.797	-63.1456	-57.4658	-233.582	-63.1993	-88.3029	-219.131	-70.7281	-22.4401	-223.795	-74.8561	-49.0544	-211.231	-72.6227	-79.5128	-196.631	-75.5626	-15.2274	-196.048	-79.977	-40.5758	-190.954	-77.8228	-65.9892	-204.065	-52.1989	31.7638	-189.844	-41.205	51.6378	-215.096	-20.7577	37.1239	
63	0.525	-191.667	17.7859	22.3099	-196.787	22.7942	-10.3716	-202.618	20.8234	-38.3475	-204.219	6.6635	-61.8106	-241.517	-14.6528	-28.1538	-235.635	-12.1391	-61.1203	-209.074	-3.58551	-75.7047	-245.713	-40.1184	-25.4572	-252.331	-41.2772	-54.39	-240.791	-37.544	-89.0393	-227.239	-53.9379	-20.1298	-232.742	-57.3496	-51.1895	-221.849	-58.0053	-78.152	-207.584	-63.223	-13.8765	-207.512	-69.4328	-40.3676	-204.488	-63.325	-65.9561	-209.761	-42.7209	29.9679	-191.187	-41.7588	54.7994	-215.839	-10.9711	38.0026	
64	0.533333	-175.072	21.3876	23.9097	-171.983	31.5541	-6.67676	-180.392	35.0185	-40.6727	-183.776	20.7252	-59.6768	-229.249	14.3512	-31.5115	-219.291	17.1729	-62.934	-194.521	17.2325	-74.6885	-242.913	-4.74513	-26.7322	-247.5	-5.62696	-59.8457	-234.006	-6.49218	-91.9016	-232.989	-29.7415	-25.3395	-236.497	-29.0592	-52.906	-225.439	-28.5799	-81.6755	-216.772	-43.1106	-18.5282	-219.057	-47.2838	-44.1317	-212.494	-49.2768	-67.5009	-213.271	-28.4838	28.0409	-195.394	-31.0907	51.2993	-204.151	4.73853	37.0819	
65	0.541667	-149.79	20.8618	24.8638	-144.841	30.5028	-8.69456	-142.401	33.5832	-34.1962	-151.322	26.6643	-59.4377	-197.477	38.3977	-29.412	-186.688	35.493	-63.4302	-161.05	21.7383	-76.4396	-219.174	25.6953	-31.1368	-222.689	25.4588	-63.3841	-211.1	19.9198	-92.4412	-218.51	2.6615	-30.3814	-221.38	2.021	-59.354	-212.665	-4.30726	-85.6629	-213.671	-20.8838	-25.4765	-215.087	-26.9464	-48.4756	-207.904	-22.9519	-72.1116	-204.648	-10.0829	25.3517	-197.304	-19.9505	47.6854	-187.409	14.7537	37.0533	
66	0.55	-126.312	12.8641	26.9973	-113.308	19.288	-2.11157	-111.2	22.1929	-32.7947	-116.994	17.2349	-58.7397	-160.689	42.9085	-31.6375	-149.082	37.7071	-63.9371	-128.949	14.7893	-74.264	-188.728	35.9225	-36.5193	-186.084	41.6658	-64.0911	-173.816	27.7758	-98.3574	-195.769	14.4675	-34.7815	-198.987	14.2235	-62.6585	-189.341	9.25434	-87.0107	-199.934	-10.1749	-24.7261	-199.409	-10.4865	-50.501	-194.071	-17.9216	-74.6771	-190.309	2.63013	22.4322	-186.438	-10.616	44.0786	-165.6	19.9699	35.6918	
67	0.558333	-111.945	3.65665	30.0949	-96.7719	3.3751	2.35379	-88.832	5.94534	-29.0147	-99.1587	-0.797014	-53.8424	-136.155	33.6811	-34.8184	-121.598	26.1799	-63.1175	-106.858	0.207961	-72.7269	-162.687	31.8421	-39.6283	-158.481	34.0041	-71.2519	-148.731	20.471	-99.5114	-175.527	15.4321	-37.1711	-174.418	14.8577	-67.7397	-165.973	6.22689	-91.9259	-186.39	-6.24933	-31.8174	-185.239	-9.74965	-56.2558	-175.125	-17.0772	-78.8249	-178.285	6.8551	18.9133	-176.13	-4.84157	41.4084	-149.194	18.2061	32.9017	
68	0.566667	-107.943	1.26274	32.1477	-90.8971	-0.229613	3.83067	-85.572	-0.86713	-23.498	-88.5501	-7.33368	-51.3451	-126.335	29.819	-38.9266	-112.269	16.3108	-66.9729	-103.091	-9.66084	-71.8636	-155.635	29.0281	-42.5723	-151.351	27.9009	-71.4629	-137.487	15.3737	-100.358	-167.314	13.3717	-37.2701	-166.952	11.4134	-67.3309	-162.09	0.309026	-91.4665	-182.434	-9.60265	-31.4461	-177.992	-11.704	-56.2843	-168.608	-19.1392	-76.8367	-172.625	8.22671	13.5273	-176.356	-2.5176	41.6973	-145.674	17.4094	29.8286	
69	0.575	-119.963	12.8796	29.9427	-102.984	15.0288	-1.16119	-93.7411	14.8525	-28.8918	-94.1612	4.47667	-52.6248	-139.758	32.0248	-43.9023	-124.314	17.1578	-69.372	-107.085	-5.02441	-71.5687	-169.541	20.8834	-49.8999	-165.316	18.374	-76.3928	-146.614	5.19311	-105.504	-178.363	0.938297	-41.6796	-177.262	-1.66176	-68.1402	-164.106	-9.9506	-92.7843	-184.103	-20.677	-32.9976	-178.442	-23.9728	-55.7149	-170.616	-32.8458	-74.9235	-182.465	0.863717	15.0713	-180.588	-8.17441	43.7304	-157.598	20.4163	27.4651	
70	0.583333	-136.268	29.6249	23.5033	-123.523	29.2249	-5.28682	-112.558	30.126	-35.2417	-110.55	17.3922	-58.4119	-162.758	26.4955	-50.6263	-144.341	21.4025	-73.1539	-114.461	1.93597	-74.1029	-182.998	7.72311	-51.5404	-178.225	1.06482	-80.4748	-155.774	-3.80293	-106.818	-185.872	-16.2431	-42.4998	-179.912	-19.5043	-73.6097	-164.303	-28.8215	-97.3739	-181.512	-37.8511	-33.1604	-175.743	-45.2309	-52.4313	-160.217	-46.0839	-75.6201	-190.043	-12.2311	10.1126	-182.653	-10.7555	40.6526	-174.75	18.5757	22.8431	
71	0.591667	-157.936	33.2089	14.2573	-141.679	39.1808	-9.98064	-133.457	35.1356	-40.0015	-123.774	24.0198	-62.9547	-177.342	8.38326	-54.4667	-154.249	9.9741	-77.1717	-123.125	6.9302	-75.8854	-191.261	-12.9213	-53.3113	-182.24	-15.7283	-83.1164	-156.906	-19.5678	-110.395	-184.183	-31.797	-45.7028	-179.31	-38.6609	-68.374	-159.214	-44.1962	-95.756	-171.965	-49.787	-25.8801	-163.996	-55.8444	-50.9352	-149.968	-57.4341	-73.5757	-190.535	-25.3591	7.8814	-186.627	-21.4257	38.4957	-189.554	12.0817	16.4764	
72	0.6	-168.219	31.5439	15.9294	-154.432	36.3827	-13.6731	-144.59	37.4796	-43.723	-134.723	21.6155	-63.3719	-183.471	-1.26602	-56.0736	-161.991	1.10026	-78.3106	-132.599	7.80176	-78.3812	-190.935	-28.5835	-55.4533	-179.489	-32.7072	-84.2743	-157.251	-30.9652	-107.434	-180.843	-44.4438	-43.2508	-173.814	-50.0676	-70.3288	-155.356	-50.9936	-94.2402	-167.238	-53.8182	-25.4934	-156.97	-64.0361	-47.0145	-140.986	-67.5133	-68.3993	-189.932	-35.4465	12.0384	-187.084	-26.6331	41.8481	-195.076	0.126745	17.8106	
73	0.608333	-169.855	26.4471	17.3938	-157.523	28.9855	-14.7394	-146.302	29.9467	-45.3	-134.083	21.545	-63.1752	-184.999	-3.10153	-53.1419	-162.618	1.22151	-78.0607	-130.417	2.72762	-76.2159	-191.364	-29.13	-52.6076	-181.858	-35.3271	-79.8239	-154.915	-34.8745	-107.225	-181.595	-45.9032	-39.9312	-172.164	-52.9854	-69.4432	-152.944	-56.2897	-91.7808	-166.251	-59.6212	-27.0705	-154.164	-69.1869	-45.7861	-139.439	-65.5761	-67.8816	-189.998	-35.709	10.0107	-185.789	-34.926	39.3238	-195.738	-4.45712	16.8535	
74	0.616667	-165.57	23.344	18.4282	-151.33	31.6125	-12.5873	-141.122	28.3946	-43.2568	-130.184	20.3352	-61.9882	-182.161	-2.09645	-51.6982	-160.465	-1.30546	-75.3602	-129.498	4.11077	-75.2289	-192.213	-27.032	-53.4717	-181.806	-32.2646	-79.8449	-159.302	-30.2739	-105.037	-183.326	-42.5993	-38.2523	-174.692	-54.3607	-68.4801	-158.575	-55.787	-86.3989	-168.343	-60.9228	-23.783	-160.357	-66.0793	-43.0313	-144.587	-66.8765	-65.2627	-187.469	-37.0696	15.2738	-188.191	-29.0351	42.573	-193.78	-0.80041	19.7089	
75	0.625	-160.904	27.4178	19.1648	-145.984	29.4178	-10.3134	-136.547	31.0507	-38.0438	-126.333	19.307	-59.0314	-181.775	-0.408744	-49.9247	-157.075	-0.0632916	-73.9499	-128.042	4.72635	-73.5814	-193.525	-21.1123	-50.1821	-184.553	-27.8953	-78.873	-158.15	-29.3448	-105.338	-184.915	-42.5477	-38.7874	-180.061	-46.8703	-66.393	-159.399	-54.3999	-90.4737	-171.866	-55.2048	-22.1439	-164.614	-66.3183	-43.1997	-150.906	-65.3134	-66.1896	-191.163	-30.0473	10.7594	-187.544	-25.9285	45.1219	-192.175	1.06954	24.5301	
76	0.633333	-159.252	27.58	18.6378	-144.128	30.9135	-8.1117	-136.415	26.6201	-37.0605	-126.637	19.5721	-59.4962	-182.381	8.26813	-47.2926	-159.943	6.83748	-73.7122	-130.644	2.10481	-73.2166	-195.337	-18.7044	-50.6901	-187.173	-25.7638	-78.4079	-164.235	-25.7374	-103.041	-188.59	-35.7498	-37.7631	-182.339	-47.804	-66.5004	-165.389	-52.291	-86.3978	-176.342	-56.1913	-23.4338	-169.729	-63.7316	-43.4574	-154.678	-65.9017	-68.7955	-190.929	-28.6593	16.3694	-189.919	-29.8647	42.7511	-193.051	2.14765	21.7483	
77	0.641667	-155.439	23.0409	24.4119	-141.759	25.9496	-6.03801	-131.036	27.3821	-34.8786	-124.715	18.2483	-55.5913	-181.186	8.72121	-45.7995	-160.614	7.44621	-73.2703	-130.099	-0.0790102	-76.1975	-195.76	-11.5208	-47.8403	-189.312	-16.8822	-75.679	-166.882	-25.3421	-101.365	-190.95	-32.926	-38.4375	-185.707	-42.4075	-66.4575	-169.575	-47.9512	-89.6563	-182.952	-50.1344	-24.5729	-176.906	-58.2571	-46.6914	-163.931	-59.9736	-65.2059	-196.424	-26.9227	15.7866	-190.438	-26.2174	45.2989	-191.325	4.76035	23.9064	
78	0.65	-139.74	21.935	28.4552	-127.895	19.9656	-3.50649	-117.862	18.5373	-29.4732	-114.538	9.32683	-51.5456	-170.346	17.9855	-44.5334	-156.774	16.1772	-71.0179	-133.817	1.2671	-82.361	-191.471	-1.80228	-42.8414	-185.722	-4.45997	-77.9865	-168.854	-12.5997	-103.012	-192.607	-19.5819	-34.1616	-192.755	-28.716	-64.569	-181.373	-35.9815	-86.4451	-189.569	-39.7441	-19.5206	-188.717	-46.7946	-47.8803	-179.325	-52.9974	-67.6483	-192.287	-14.2924	18.7825	-190.539	-16.7525	44.7817	-177.991	14.5155	27.21	
79	0.658333	-121.999	7.97032	29.0446	-105.943	4.05909	2.34682	-91.8848	1.61459	-24.6395	-87.9474	-6.17787	-46.361	-150.739	21.3992	-40.3864	-141.848	17.4086	-73.07	-129.858	5.32617	-90.7971	-176.404	12.8664	-43.6832	-173.456	12.7128	-72.3536	-168.152	-1.36942	-102.464	-187.185	-2.36939	-38.0989	-191.674	-9.91966	-62.6493	-186.517	-18.7072	-87.2071	-194.997	-22.4131	-20.0842	-200.445	-28.7411	-42.4754	-194.997	-38.1001	-65.0874	-185.663	-1.33335	19.3378	-184.428	0.283636	44.7037	-159.708	20.1066	27.5264	
80	0.666667	-111.919	-3.39706	29.7072	-91.6626	-11.5441	8.84565	-81.5674	-17.9854	-19.2414	-73.5591	-27.425	-37.1499	-132.507	17.6843	-44.7549	-127.456	13.7385	-73.3495	-119.5	3.19066	-96.2272	-160.363	17.3547	-44.7642	-161.497	16.9601	-74.9821	-158.977	7.09027	-103.805	-175.632	6.2043	-35.0694	-181.373	4.39787	-60.098	-184.404	-6.13991	-89.6602	-196.009	-7.92666	-20.9298	-197.559	-11.087	-40.7552	-203.841	-21.1225	-63.5091	-176.729	12.367	13.5535	-170.006	10.5556	44.5914	-141.312	19.2335	26.9644	
81	0.675	-102.188	-8.86749	30.9488	-86.814	-20.0034	7.92534	-73.5848	-28.588	-16.5839	-65.8765	-39.4291	-32.7138	-123.017	10.3927	-43.44	-120.356	8.83226	-70.4334	-117.86	0.626201	-97.5348	-147.755	16.7084	-47.1804	-148.609	16.8098	-75.8759	-156.34	9.03249	-105.763	-171.26	8.84139	-35.7376	-179.171	8.86195	-60.0886	-182.576	0.354671	-91.0333	-186.935	-0.318241	-23.1979	-195.292	-2.57949	-42.3395	-206.644	-11.9295	-64.2307	-167.634	15.8096	14.6082	-166.405	14.8927	42.5562	-132.504	16.4741	23.8772	
82	0.683333	-101.438	-9.6494	30.3747	-87.2864	-21.4827	11.5705	-72.9733	-32.4557	-16.6207	-65.6765	-41.3304	-34.1725	-119.385	8.42231	-44.3033	-115.233	5.48966	-70.2049	-116.663	-0.884923	-95.596	-146.869	14.1628	-44.3192	-148.799	13.1415	-78.225	-154.382	5.9117	-107.398	-169.028	8.34248	-37.125	-178.277	6.68085	-60.7139	-180.261	-0.929657	-88.5876	-185.476	-1.86583	-17.8869	-195.935	-3.08477	-40.4472	-204.17	-11.6033	-60.9834	-161.187	16.5453	10.9186	-159.783	17.4349	42.1381	-130.528	17.1637	25.3779	
83	0.691667	-103.852	-11.4141	33.8594	-84.1514	-22.8974	11.0307	-74.4588	-32.5908	-14.6123	-64.0801	-43.0719	-33.3689	-120.111	5.76635	-42.224	-117.293	3.34849	-70.6525	-115.203	-3.0428	-95.0177	-150.437	12.8627	-47.5685	-152.957	10.0139	-75.2196	-155.745	2.38323	-103.93	-168.959	5.23787	-35.0305	-177.685	3.48688	-59.9428	-184.775	-5.50745	-87.7579	-187.961	-5.15197	-17.8881	-197.593	-8.17838	-38.5602	-200.712	-15.6586	-63.1468	-165.166	12.9541	12.7486	-164.097	13.9764	43.5958	-130.274	15.3332	23.8665	
84	0.7	-102.909	-11.7905	30.5334	-85.2294	-23.8268	9.18665	-69.9783	-33.3605	-14.2895	-64.456	-44.2882	-31.6302	-122.257	4.4424	-40.8972	-120.115	0.184698	-72.8016	-114.982	-5.57581	-93.4836	-148.488	8.83388	-47.2997	-153.938	7.70092	-72.4687	-154.468	-0.807229	-104.996	-172.05	1.83526	-35.4438	-177.285	-1.31617	-63.3138	-183.09	-10.4229	-88.5082	-185.912	-7.87426	-20.2609	-197.548	-13.1638	-39.2499	-199.699	-19.6263	-61.9932	-167.864	11.675	13.4987	-163.627	10.3524	46.2553	-130.956	13.2498	24.7052	
